<?xml version="1.0" encoding="UTF-8" standalone="no"?>
<!-- Created with Inkscape (http://www.inkscape.org/) -->

<svg
   width="297mm"
   height="210mm"
   viewBox="0 0 297 210"
   version="1.1"
   id="svg5"
   inkscape:version="1.2 (dc2aedaf03, 2022-05-15)"
   sodipodi:docname="contact.svg"
   xml:space="preserve"
   xmlns:inkscape="http://www.inkscape.org/namespaces/inkscape"
   xmlns:sodipodi="http://sodipodi.sourceforge.net/DTD/sodipodi-0.dtd"
   xmlns="http://www.w3.org/2000/svg"
   xmlns:svg="http://www.w3.org/2000/svg"><sodipodi:namedview
     id="namedview7"
     pagecolor="#121212"
     bordercolor="#000000"
     borderopacity="0.25"
     inkscape:showpageshadow="2"
     inkscape:pageopacity="0"
     inkscape:pagecheckerboard="0"
     inkscape:deskcolor="#d1d1d1"
     inkscape:document-units="mm"
     showgrid="true"
     inkscape:zoom="1.0255231"
     inkscape:cx="572.39081"
     inkscape:cy="259.86738"
     inkscape:window-width="1920"
     inkscape:window-height="1001"
     inkscape:window-x="-9"
     inkscape:window-y="-9"
     inkscape:window-maximized="1"
     inkscape:current-layer="layer1"><inkscape:grid
       type="xygrid"
       id="grid9"
       spacingx="0.26458333"
       dotted="false"
       visible="true"
       enabled="true"
       empspacing="5"
       originx="0"
       originy="0" /></sodipodi:namedview><defs
     id="defs2"><inkscape:path-effect
       effect="fillet_chamfer"
       id="path-effect10166"
       is_visible="true"
       lpeversion="1"
       nodesatellites_param="F,0,0,1,0,3.7041667,0,1 @ F,0,0,1,0,3.7041667,0,1 @ F,0,0,1,0,3.7041667,0,1 @ F,0,0,1,0,3.7041667,0,1"
       unit="px"
       method="auto"
       mode="F"
       radius="14"
       chamfer_steps="1"
       flexible="false"
       use_knot_distance="true"
       apply_no_radius="true"
       apply_with_radius="true"
       only_selected="false"
       hide_knots="false" /><rect
       x="609.99999"
       y="460"
       width="200"
       height="20"
       id="rect62866" /><inkscape:path-effect
       effect="fillet_chamfer"
       id="path-effect10166-3"
       is_visible="true"
       lpeversion="1"
       nodesatellites_param="F,0,0,1,0,3.7041667,0,1 @ F,0,0,1,0,3.7041667,0,1 @ F,0,0,1,0,3.7041667,0,1 @ F,0,0,1,0,3.7041667,0,1"
       unit="px"
       method="auto"
       mode="F"
       radius="14"
       chamfer_steps="1"
       flexible="false"
       use_knot_distance="true"
       apply_no_radius="true"
       apply_with_radius="true"
       only_selected="false"
       hide_knots="false" /></defs><g
     inkscape:label="Layer 1"
     inkscape:groupmode="layer"
     id="layer1"
     style="display:inline"><rect
       style="fill:#6e6e6e;fill-opacity:1;stroke:none;stroke-width:0.1;stroke-opacity:1"
       id="rect20823"
       width="28.310415"
       height="11.1125"
       x="103.1875"
       y="5.2916665" /><path
       style="fill:#000000;fill-opacity:0;stroke:none;stroke-width:0.103413;stroke-dasharray:none;stroke-opacity:1"
       d="M 103.1875,10.715624 V 5.2916668 h 14.15521 14.15521 v 5.4239572 5.423962 H 117.34271 103.1875 Z"
       id="path6918" /><path
       style="fill:#1000b6;fill-opacity:1;stroke:none;stroke-width:0.1;stroke-opacity:1"
       id="rect9272"
       width="106.3625"
       height="13.295312"
       x="102.92292"
       y="90.444672"
       inkscape:path-effect="#path-effect10166"
       d="m 106.62709,90.444672 98.95417,0 a 3.7041667,3.7041667 45 0 1 3.70416,3.704166 v 5.886982 a 3.7041667,3.7041667 135 0 1 -3.70416,3.70416 h -98.95417 a 3.7041667,3.7041667 45 0 1 -3.70417,-3.70416 v -5.886982 a 3.7041667,3.7041667 135 0 1 3.70417,-3.704166 z"
       sodipodi:type="rect" /><rect
       style="fill:none;stroke:#000000;stroke-width:1;stroke-dasharray:none;stroke-opacity:1"
       id="rect3810"
       width="285.75"
       height="199.76042"
       x="5.2916665"
       y="5.2916665" /><text
       xml:space="preserve"
       style="font-size:3.175px;text-align:center;text-anchor:middle;display:inline;fill:#ffffff;fill-opacity:1;stroke:none;stroke-width:0.3;stroke-dasharray:none;stroke-opacity:1"
       x="26.458334"
       y="10.583333"
       id="text5430"><tspan
         sodipodi:role="line"
         id="tspan5428"
         style="text-align:center;text-anchor:middle;fill:#ffffff;fill-opacity:1;stroke:none;stroke-width:0.3;stroke-dasharray:none"
         x="26.458334"
         y="10.583333">Jules Sang</tspan><tspan
         sodipodi:role="line"
         style="text-align:center;text-anchor:middle;fill:#ffffff;fill-opacity:1;stroke:none;stroke-width:0.3;stroke-dasharray:none"
         x="26.458334"
         y="14.552083"
         id="tspan5432">Développeur frontend</tspan></text><text
       xml:space="preserve"
       style="font-size:3.175px;text-align:start;text-anchor:start;fill:#ffffff;fill-opacity:1;stroke:none;stroke-width:0.3;stroke-dasharray:none;stroke-opacity:1"
       x="54.452469"
       y="12.652458"
       id="text9068-4"><tspan
         sodipodi:role="line"
         id="tspan9066-3"
         style="text-align:start;text-anchor:start;stroke:none;stroke-width:0.3;fill:#ffffff;fill-opacity:1"
         x="54.452469"
         y="12.652458">Expériences de développeur</tspan></text><text
       xml:space="preserve"
       style="font-size:3.175px;text-align:start;text-anchor:start;fill:#ffffff;fill-opacity:1;stroke:none;stroke-width:0.3;stroke-dasharray:none;stroke-opacity:1"
       x="111.14427"
       y="12.651942"
       id="text9068-4-7-6"><tspan
         sodipodi:role="line"
         id="tspan9066-3-1-7"
         style="text-align:start;text-anchor:start;stroke:none;stroke-width:0.3;fill:#ffffff;fill-opacity:1"
         x="111.14427"
         y="12.651942">Contact</tspan></text><text
       xml:space="preserve"
       style="font-size:3.175px;text-align:start;text-anchor:start;fill:#000000;fill-opacity:1;stroke:none;stroke-width:0.1;stroke-dasharray:none;stroke-opacity:1"
       x="50.270832"
       y="50.270832"
       id="text11397"><tspan
         sodipodi:role="line"
         id="tspan11395"
         style="stroke-width:0.1"
         x="50.270832"
         y="50.270832" /></text><path
       style="fill:none;stroke:#6e6e6e;stroke-width:0.307409;stroke-dasharray:none;stroke-opacity:1"
       d="M 47.624999,5.2916666 V 16.404167"
       id="path2368" /><path
       style="fill:none;stroke:#6e6e6e;stroke-width:0.3;stroke-dasharray:none;stroke-opacity:1"
       d="M 103.18765,5.8208332 V 16.404166"
       id="path2368-0-1" /><path
       style="fill:none;stroke:#6e6e6e;stroke-width:0.3;stroke-dasharray:none;stroke-opacity:1"
       d="M 131.49809,5.8208332 V 16.404167"
       id="path2368-0-1-1" /><path
       style="fill:none;stroke:#6e6e6e;stroke-width:0.5;stroke-dasharray:none;stroke-opacity:1"
       d="M 5.2916666,16.404167 H 291.04166"
       id="path2436" /><text
       xml:space="preserve"
       style="font-size:3.175px;fill:none;fill-opacity:0.272374;stroke:#000000;stroke-width:0.499999;stroke-dasharray:none;stroke-opacity:1"
       x="74.083336"
       y="47.625"
       id="text8761"><tspan
         sodipodi:role="line"
         id="tspan8759"
         style="fill:none;stroke:#000000;stroke-width:0.5;stroke-opacity:1"
         x="74.083336"
         y="47.625" /></text><text
       xml:space="preserve"
       style="font-style:normal;font-variant:normal;font-weight:bold;font-stretch:normal;font-size:8.509px;font-family:sans-serif;-inkscape-font-specification:'sans-serif Bold';fill:#ffffff;fill-opacity:1;stroke:none;stroke-width:1.005;stroke-dasharray:none;stroke-opacity:1"
       x="102.92291"
       y="84.062927"
       id="text7768"><tspan
         sodipodi:role="line"
         id="tspan7766"
         style="font-style:normal;font-variant:normal;font-weight:bold;font-stretch:normal;font-size:8.509px;font-family:sans-serif;-inkscape-font-specification:'sans-serif Bold';fill:#ffffff;fill-opacity:1;stroke-width:1.005"
         x="102.92291"
         y="84.062927">Pour me contacter :</tspan></text><text
       xml:space="preserve"
       style="font-style:normal;font-variant:normal;font-weight:bold;font-stretch:normal;font-size:5.64444px;font-family:sans-serif;-inkscape-font-specification:'sans-serif Bold';fill:#000000;fill-opacity:1;stroke:none;stroke-width:1;stroke-dasharray:none;stroke-opacity:1"
       x="39.6875"
       y="52.916664"
       id="text8504"><tspan
         sodipodi:role="line"
         id="tspan8502"
         style="stroke-width:1"
         x="39.6875"
         y="52.916664" /></text><text
       xml:space="preserve"
       style="font-style:normal;font-variant:normal;font-weight:bold;font-stretch:normal;font-size:2.82223px;font-family:sans-serif;-inkscape-font-specification:'sans-serif Bold';fill:#000000;fill-opacity:1;stroke:none;stroke-width:1;stroke-dasharray:none;stroke-opacity:1"
       x="82.020836"
       y="11.90625"
       id="text38778"><tspan
         sodipodi:role="line"
         id="tspan38776"
         style="stroke-width:1"
         x="82.020836"
         y="11.90625" /></text><text
       xml:space="preserve"
       transform="scale(0.26458333)"
       id="text62864"
       style="font-style:normal;font-variant:normal;font-weight:bold;font-stretch:normal;font-size:10.6667px;font-family:sans-serif;-inkscape-font-specification:'sans-serif Bold';white-space:pre;shape-inside:url(#rect62866);display:inline;fill:#000000;fill-opacity:1;stroke:none;stroke-width:3.77953;stroke-dasharray:none;stroke-opacity:1" /><text
       xml:space="preserve"
       style="font-size:5.67266px;fill:#ffffff;fill-opacity:1;stroke:none;stroke-width:0.1005;stroke-opacity:1"
       x="121.53635"
       y="98.953682"
       id="text8530"><tspan
         sodipodi:role="line"
         id="tspan8528"
         style="font-size:5.67266px;fill:#ffffff;fill-opacity:1;stroke:none;stroke-width:0.1005;stroke-opacity:1"
         x="121.53635"
         y="98.953682">jules.sang@grenoble-inp.org</tspan></text><g
       id="g9436"
       transform="matrix(1.005,0,0,1.005,-0.77571007,45.705573)"><path
         style="fill:#ffffff;fill-opacity:1;stroke:none;stroke-width:0.00430943;stroke-opacity:1"
         d="m 109.55809,54.187174 c -0.004,-0.0043 -0.0395,-0.01159 -0.0782,-0.01614 -0.0855,-0.01008 -0.19652,-0.06483 -0.26247,-0.129471 -0.0426,-0.04175 -0.12285,-0.154209 -0.12285,-0.172135 0,-0.004 -0.008,-0.02479 -0.0184,-0.04607 -0.0285,-0.05998 -0.0149,-0.08455 0.075,-0.135784 0.044,-0.02508 0.08,-0.04946 0.0801,-0.05416 6e-5,-0.0047 0.007,-0.0085 0.0164,-0.0085 0.009,0 0.0231,-0.0066 0.0314,-0.01476 0.008,-0.0081 0.0484,-0.03483 0.0892,-0.05935 0.0408,-0.02453 0.0809,-0.05124 0.0892,-0.05936 0.008,-0.0081 0.0224,-0.01476 0.0314,-0.01476 0.009,0 0.0163,-0.0039 0.0163,-0.0088 0,-0.0048 0.0231,-0.02141 0.0513,-0.03682 0.0282,-0.01543 0.0513,-0.03198 0.0513,-0.03682 0,-0.0048 0.005,-0.0088 0.0117,-0.0088 0.006,0 0.0504,-0.02567 0.0978,-0.05701 0.0473,-0.03136 0.0885,-0.05701 0.0915,-0.05701 0.003,0 0.0398,-0.02233 0.0818,-0.0496 0.0992,-0.06444 0.1741,-0.112345 0.19842,-0.126894 0.0852,-0.051 0.34336,-0.214537 0.35112,-0.222459 0.003,-0.0032 0.016,-0.01196 0.0285,-0.01947 0.12895,-0.07725 0.18481,-0.112694 0.1975,-0.125297 0.008,-0.0082 0.0224,-0.01497 0.0314,-0.01497 0.009,0 0.0163,-0.004 0.0163,-0.0088 0,-0.0048 0.0231,-0.0214 0.0513,-0.03682 0.0282,-0.01543 0.0513,-0.03198 0.0513,-0.03682 0,-0.0048 0.006,-0.0088 0.0124,-0.0088 0.0112,0 0.16941,-0.09806 0.19941,-0.12359 0.007,-0.0057 0.0234,-0.01397 0.0371,-0.01831 0.0136,-0.0043 0.0248,-0.01204 0.0248,-0.01717 0,-0.0051 0.009,-0.01238 0.02,-0.01614 0.011,-0.0038 0.0507,-0.02754 0.0884,-0.05282 0.0376,-0.02529 0.0774,-0.04906 0.0884,-0.05283 0.011,-0.0038 0.02,-0.01019 0.02,-0.01431 0,-0.0041 0.0231,-0.02008 0.0513,-0.03549 0.0282,-0.01542 0.0513,-0.03199 0.0513,-0.03682 0,-0.0048 0.007,-0.0088 0.0163,-0.0088 0.009,0 0.0233,-0.0064 0.0318,-0.01426 0.009,-0.0078 0.0256,-0.0205 0.0379,-0.02813 0.0241,-0.015 0.12215,-0.07515 0.15915,-0.09767 0.0125,-0.0076 0.0254,-0.01646 0.0285,-0.01958 0.003,-0.0031 0.016,-0.01191 0.0285,-0.01947 0.0611,-0.0369 0.20457,-0.124997 0.22821,-0.140163 0.0147,-0.0094 0.0873,-0.05543 0.16147,-0.102275 0.0741,-0.04685 0.13738,-0.0879 0.14052,-0.09122 0.007,-0.0079 0.047,-0.03268 0.0676,-0.04233 0.009,-0.0042 0.0422,-0.02469 0.0738,-0.04554 0.0316,-0.02085 0.0656,-0.0379 0.0754,-0.0379 0.0171,0 0.0829,0.04179 0.48784,0.310126 0.10223,0.06773 0.19074,0.123153 0.19669,0.123153 0.006,0 0.0108,0.0042 0.0108,0.0093 0,0.0051 0.034,0.02693 0.0756,0.04846 0.0663,0.03431 0.0856,0.03904 0.15678,0.03827 0.0689,-7.94e-4 0.0912,-0.0064 0.14754,-0.03735 0.0365,-0.02005 0.0724,-0.04156 0.0798,-0.04779 0.0115,-0.0097 0.18694,-0.125466 0.58304,-0.384808 0.0499,-0.03266 0.0981,-0.05938 0.10714,-0.05938 0.009,0 0.0435,0.01796 0.0766,0.03991 0.0331,0.02196 0.0652,0.03991 0.0715,0.03991 0.006,0 0.0131,0.0039 0.0152,0.0087 0.002,0.0048 0.0645,0.04713 0.13862,0.09407 0.0742,0.04694 0.14855,0.09425 0.16533,0.10513 0.0168,0.01087 0.0408,0.02506 0.0533,0.03148 0.0125,0.0064 0.0536,0.03213 0.0912,0.0571 0.0376,0.02498 0.0761,0.04901 0.0855,0.0534 0.009,0.0044 0.0239,0.01468 0.0322,0.02289 0.008,0.0082 0.0224,0.0149 0.0314,0.0149 0.009,0 0.0163,0.0039 0.0163,0.0088 0,0.0048 0.0231,0.0214 0.0513,0.03682 0.0282,0.01543 0.0513,0.03198 0.0513,0.03682 0,0.0048 0.007,0.0088 0.0153,0.0088 0.008,0 0.0272,0.01027 0.0416,0.02281 0.0145,0.01254 0.0328,0.02281 0.0407,0.02281 0.008,0 0.0161,0.0038 0.0182,0.0085 0.006,0.01299 0.0754,0.05986 0.0889,0.05986 0.007,0 0.0118,0.0051 0.0118,0.0114 0,0.0063 0.007,0.0114 0.0163,0.0114 0.009,0 0.0231,0.0066 0.0314,0.01476 0.008,0.0081 0.0484,0.03483 0.0892,0.05936 0.0408,0.02453 0.0809,0.05124 0.0892,0.05935 0.008,0.0081 0.0224,0.01476 0.0314,0.01476 0.009,0 0.0163,0.004 0.0163,0.0088 0,0.0048 0.0189,0.01894 0.0419,0.03136 0.023,0.01241 0.0476,0.02768 0.0546,0.03395 0.007,0.0063 0.0228,0.0176 0.035,0.02516 0.035,0.02156 0.19084,0.116819 0.21616,0.132099 0.0125,0.0076 0.0254,0.01675 0.0285,0.02042 0.003,0.0037 0.0416,0.02829 0.0855,0.05475 0.12136,0.07313 0.12337,0.07442 0.14001,0.08967 0.009,0.0078 0.0205,0.01426 0.0266,0.01426 0.006,0 0.0172,0.0054 0.0248,0.01204 0.018,0.01569 0.26921,0.178504 0.29882,0.193638 0.0126,0.0064 0.0613,0.03687 0.10832,0.06769 0.047,0.03082 0.12144,0.0777 0.16533,0.104177 0.0439,0.02647 0.0824,0.05113 0.0855,0.05479 0.003,0.0037 0.016,0.01281 0.0285,0.02032 0.12895,0.07726 0.18482,0.112694 0.1975,0.125298 0.008,0.0082 0.0224,0.01498 0.0314,0.01498 0.009,0 0.0163,0.0045 0.0163,0.01008 0,0.0055 0.009,0.01315 0.02,0.01691 0.011,0.0038 0.0507,0.02742 0.0884,0.05256 0.0376,0.02514 0.0761,0.04931 0.0855,0.05371 0.009,0.0044 0.0239,0.01469 0.0322,0.02289 0.008,0.0082 0.0224,0.0149 0.0314,0.0149 0.009,0 0.0163,0.004 0.0163,0.0088 0,0.0048 0.0189,0.01895 0.0419,0.03136 0.023,0.01241 0.0476,0.02768 0.0546,0.03395 0.007,0.0063 0.0224,0.01688 0.0343,0.02357 0.0356,0.02008 0.0465,0.04579 0.0318,0.07546 -0.007,0.01453 -0.0166,0.03923 -0.021,0.0549 -0.0159,0.05675 -0.098,0.166161 -0.16827,0.224325 -0.0445,0.03684 -0.15827,0.08639 -0.22423,0.09766 -0.083,0.01418 -7.70912,0.02633 -7.72316,0.0123 z"
         id="path9424" /><path
         style="fill:#ffffff;fill-opacity:1;stroke:none;stroke-width:0.00430943;stroke-opacity:1"
         d="m 109.02635,51.216178 c -9e-5,-1.033166 0.003,-1.878483 0.006,-1.878483 0.009,0 0.0788,0.05004 0.0832,0.05986 0.002,0.0047 0.009,0.0085 0.0147,0.0085 0.0128,0 0.0823,0.04737 0.0879,0.05986 0.002,0.0047 0.008,0.0085 0.0132,0.0085 0.008,0 0.11294,0.06704 0.2509,0.159629 0.13796,0.09259 0.24333,0.159628 0.2509,0.159628 0.005,0 0.0112,0.0039 0.0133,0.0085 0.006,0.01299 0.0754,0.05986 0.0889,0.05986 0.007,0 0.0118,0.005 0.0118,0.01119 0,0.0061 0.0125,0.01431 0.0277,0.01812 0.0152,0.0038 0.0305,0.01418 0.0339,0.02302 0.003,0.0088 0.014,0.01606 0.0236,0.01606 0.01,0 0.0175,0.005 0.0175,0.01119 0,0.0061 0.0125,0.01431 0.0277,0.01812 0.0152,0.0038 0.0305,0.01418 0.0338,0.02302 0.003,0.0088 0.014,0.01606 0.0236,0.01606 0.01,0 0.0175,0.0048 0.0175,0.01064 0,0.0058 0.0111,0.01418 0.0248,0.01849 0.0136,0.0043 0.0303,0.01246 0.0371,0.0181 0.0556,0.04628 0.0684,0.0554 0.0776,0.0554 0.006,0 0.0172,0.0064 0.0254,0.01426 0.008,0.0078 0.0245,0.02064 0.0362,0.02844 0.0269,0.01786 0.3885,0.25514 0.61425,0.403051 0.0941,0.06163 0.17616,0.116271 0.18244,0.121422 0.006,0.0052 0.0319,0.0218 0.057,0.03702 0.0251,0.01521 0.0473,0.03172 0.0494,0.0367 0.002,0.005 0.0103,0.009 0.0182,0.009 0.0127,0 0.0283,0.01069 0.083,0.0568 0.008,0.0064 0.0188,0.01161 0.0248,0.01161 0.006,0 0.0179,0.0066 0.0261,0.01469 0.008,0.0081 0.0356,0.02712 0.0607,0.04233 0.0251,0.01521 0.0511,0.03298 0.0578,0.03948 0.007,0.0065 0.0311,0.02196 0.0542,0.03438 0.023,0.01241 0.0419,0.02651 0.0419,0.03136 0,0.0048 0.005,0.0088 0.0103,0.0088 0.006,0 0.0829,0.04874 0.1715,0.10832 0.0886,0.05958 0.16607,0.108318 0.17209,0.108318 0.006,0 0.0109,0.0048 0.0109,0.01064 0,0.0058 0.0104,0.01394 0.0231,0.01796 0.0212,0.0067 0.0201,0.0094 -0.0143,0.03255 -0.0206,0.01386 -0.0707,0.04523 -0.11148,0.0697 -0.0408,0.02447 -0.0767,0.04736 -0.0798,0.05088 -0.003,0.0035 -0.016,0.01254 -0.0285,0.02005 -0.13409,0.08033 -0.18333,0.111006 -0.18814,0.117208 -0.003,0.004 -0.0391,0.02729 -0.0798,0.05166 -0.0408,0.02437 -0.0758,0.04843 -0.0779,0.05346 -0.002,0.005 -0.008,0.0092 -0.0135,0.0092 -0.0101,0 -0.19522,0.114282 -0.20509,0.126619 -0.003,0.0039 -0.0173,0.01074 -0.0314,0.01514 -0.0141,0.0044 -0.0257,0.0122 -0.0257,0.0173 0,0.0051 -0.009,0.01238 -0.0199,0.01614 -0.011,0.0038 -0.0507,0.02754 -0.0884,0.05282 -0.0376,0.02529 -0.0774,0.04906 -0.0884,0.05282 -0.011,0.0038 -0.0199,0.01021 -0.0199,0.01431 0,0.0041 -0.0231,0.02008 -0.0513,0.03549 -0.0282,0.01543 -0.0513,0.03198 -0.0513,0.03682 0,0.0048 -0.007,0.0088 -0.0163,0.0088 -0.009,0 -0.0231,0.0067 -0.0314,0.0149 -0.008,0.0082 -0.0228,0.0185 -0.0322,0.02289 -0.009,0.0044 -0.0479,0.02856 -0.0855,0.05371 -0.0376,0.02514 -0.0774,0.0488 -0.0884,0.05256 -0.011,0.0038 -0.02,0.01077 -0.02,0.01558 0,0.0048 -0.009,0.01183 -0.0199,0.01558 -0.011,0.0038 -0.0507,0.02754 -0.0884,0.05282 -0.0376,0.02529 -0.0774,0.04906 -0.0884,0.05282 -0.011,0.0038 -0.0199,0.01103 -0.0199,0.01614 0,0.0051 -0.0115,0.01291 -0.0257,0.0173 -0.0141,0.0044 -0.0282,0.01132 -0.0314,0.01537 -0.003,0.004 -0.0664,0.04568 -0.14052,0.09253 -0.0741,0.04684 -0.14855,0.09409 -0.16533,0.105 -0.0168,0.0109 -0.038,0.02342 -0.0472,0.02782 -0.009,0.0044 -0.0617,0.0378 -0.11676,0.07424 -0.055,0.03644 -0.10287,0.06625 -0.10632,0.06625 -0.009,0 -0.0789,0.04997 -0.0833,0.05986 -0.002,0.0047 -0.0103,0.0085 -0.0182,0.0085 -0.008,0 -0.0345,0.01437 -0.0589,0.03192 -0.0245,0.01754 -0.0778,0.05187 -0.11858,0.07627 -0.0408,0.02439 -0.0767,0.04723 -0.0798,0.05075 -0.003,0.0035 -0.016,0.01254 -0.0285,0.02005 -0.14363,0.08605 -0.18368,0.111702 -0.19081,0.122211 -0.005,0.0068 -0.008,-0.832966 -0.009,-1.866132 z"
         id="path9426" /><path
         style="fill:#ffffff;fill-opacity:1;stroke:none;stroke-width:0.00430943;stroke-opacity:1"
         d="m 113.23313,51.415172 c -0.32522,-0.21716 -0.55504,-0.367173 -0.56253,-0.367173 -0.004,0 -0.0143,-0.0052 -0.0219,-0.01162 -0.0529,-0.04458 -0.0698,-0.0568 -0.0787,-0.0568 -0.006,0 -0.0163,-0.0052 -0.0239,-0.01161 -0.053,-0.04474 -0.0698,-0.0568 -0.079,-0.0568 -0.006,0 -0.0176,-0.0064 -0.0264,-0.01426 -0.0369,-0.03305 -0.0505,-0.04276 -0.0601,-0.04276 -0.009,0 -0.0259,-0.01222 -0.0787,-0.0568 -0.008,-0.0064 -0.0188,-0.01161 -0.0249,-0.01161 -0.006,0 -0.0179,-0.0066 -0.0261,-0.01468 -0.008,-0.0081 -0.0356,-0.02704 -0.0607,-0.04215 -0.0251,-0.01511 -0.0482,-0.03059 -0.0513,-0.03438 -0.003,-0.0038 -0.0262,-0.01929 -0.0513,-0.03445 -0.0251,-0.01516 -0.0507,-0.03172 -0.057,-0.03682 -0.0349,-0.02835 -0.44264,-0.293603 -0.45137,-0.293603 -0.006,0 -0.0104,-0.005 -0.0104,-0.01119 0,-0.0062 -0.0128,-0.01439 -0.0285,-0.01834 -0.0157,-0.0039 -0.0285,-0.01185 -0.0285,-0.01759 0,-0.0057 -0.0115,-0.01545 -0.0257,-0.02154 -0.0264,-0.0114 -0.0669,-0.03527 -0.077,-0.04535 -0.0164,-0.0164 -0.0804,-0.05701 -0.0898,-0.05701 -0.006,0 -0.0126,-0.0038 -0.0147,-0.0085 -0.006,-0.01249 -0.0751,-0.05986 -0.0879,-0.05986 -0.006,0 -0.0126,-0.0038 -0.0147,-0.0085 -0.004,-0.0088 -0.0734,-0.05986 -0.0815,-0.05986 -0.003,0 -0.34941,-0.226729 -0.45249,-0.296545 -0.0773,-0.05235 -0.14038,-0.09113 -0.14827,-0.09113 -0.005,0 -0.0112,-0.0038 -0.0133,-0.0085 -0.006,-0.01249 -0.0751,-0.05986 -0.0879,-0.05986 -0.006,0 -0.0126,-0.0039 -0.0147,-0.0085 -0.006,-0.01299 -0.0754,-0.05986 -0.0889,-0.05986 -0.007,0 -0.0118,-0.0039 -0.0118,-0.0088 0,-0.0048 -0.0231,-0.0214 -0.0513,-0.03682 -0.0282,-0.01543 -0.0513,-0.03081 -0.0513,-0.03421 0,-0.0034 -0.0231,-0.01879 -0.0513,-0.03421 -0.0282,-0.01543 -0.0513,-0.03198 -0.0513,-0.03682 0,-0.0048 -0.005,-0.0088 -0.0118,-0.0088 -0.0135,0 -0.0831,-0.04688 -0.0889,-0.05986 -0.002,-0.0047 -0.008,-0.0085 -0.0132,-0.0085 -0.008,0 -0.19896,-0.12411 -0.56225,-0.366368 -0.074,-0.04934 -0.13898,-0.08971 -0.14442,-0.08971 -0.005,0 -0.0116,-0.0038 -0.0137,-0.0085 -0.005,-0.01053 -0.0742,-0.05986 -0.0844,-0.05986 -0.004,0 -0.0268,-0.0154 -0.0506,-0.03421 -0.0237,-0.01881 -0.0489,-0.03421 -0.0558,-0.03421 -0.0149,0 -0.0172,-0.07566 -0.002,-0.08473 0.006,-0.0034 0.0136,-0.02005 0.0178,-0.03688 0.004,-0.01683 0.0252,-0.05665 0.0465,-0.08847 0.0967,-0.144126 0.21009,-0.217567 0.36317,-0.235172 0.12355,-0.01421 7.64344,-0.01429 7.76613,-8.2e-5 0.0658,0.0076 0.11029,0.02058 0.15963,0.04655 0.0754,0.03968 0.20673,0.167111 0.21785,0.211416 0.004,0.01527 0.0113,0.02775 0.0166,0.02775 0.005,0 0.013,0.01802 0.0172,0.04003 0.004,0.02201 0.0121,0.04284 0.0176,0.04628 0.0142,0.0088 0.0127,0.07331 -0.002,0.07331 -0.0102,0 -0.0736,0.03984 -0.0908,0.05701 -0.0101,0.01008 -0.0506,0.03394 -0.077,0.04535 -0.0141,0.0061 -0.0257,0.01574 -0.0257,0.02146 0,0.0057 -0.009,0.01347 -0.02,0.01725 -0.011,0.0038 -0.0353,0.01717 -0.0541,0.02972 -0.0188,0.01254 -0.0457,0.02882 -0.0599,0.03617 -0.0141,0.0074 -0.0257,0.01767 -0.0257,0.02294 0,0.0053 -0.005,0.0096 -0.0104,0.0096 -0.009,0 -0.41651,0.26525 -0.45137,0.293603 -0.006,0.0051 -0.0319,0.02167 -0.057,0.03682 -0.0251,0.01513 -0.0482,0.03065 -0.0513,0.03445 -0.003,0.0038 -0.0262,0.01926 -0.0513,0.03438 -0.0251,0.01511 -0.0524,0.03408 -0.0607,0.04215 -0.008,0.0081 -0.0202,0.01468 -0.0265,0.01468 -0.006,0 -0.0185,0.0064 -0.0273,0.01426 -0.0369,0.03306 -0.0505,0.04276 -0.0601,0.04276 -0.009,0 -0.0259,0.01222 -0.0787,0.0568 -0.008,0.0064 -0.0183,0.01161 -0.0239,0.01161 -0.009,0 -0.0217,0.0092 -0.0772,0.0554 -0.007,0.0056 -0.0234,0.01376 -0.0371,0.0181 -0.0136,0.0043 -0.0248,0.01265 -0.0248,0.0185 0,0.0058 -0.008,0.01064 -0.0175,0.01064 -0.01,0 -0.0202,0.0072 -0.0236,0.01609 -0.003,0.0088 -0.0186,0.01921 -0.0339,0.02302 -0.0152,0.0038 -0.0277,0.01199 -0.0277,0.01812 0,0.0061 -0.005,0.01119 -0.0104,0.01119 -0.006,0 -0.0788,0.04534 -0.16248,0.100754 -0.50562,0.334899 -0.55508,0.367141 -0.59965,0.390911 -0.0141,0.0075 -0.0257,0.01799 -0.0257,0.02326 0,0.0053 -0.005,0.0096 -0.0119,0.0096 -0.0135,0 -0.0831,0.04688 -0.0889,0.05986 -0.002,0.0047 -0.008,0.0085 -0.0134,0.0085 -0.009,0 -0.12137,0.07356 -0.56201,0.366606 -0.074,0.04921 -0.13898,0.08947 -0.14442,0.08947 -0.005,0 -0.0116,0.0038 -0.0137,0.0085 -0.006,0.01299 -0.0754,0.05986 -0.0889,0.05986 -0.007,0 -0.0118,0.0039 -0.0118,0.0088 0,0.0048 -0.0231,0.0214 -0.0513,0.03682 -0.0282,0.01543 -0.0513,0.03081 -0.0513,0.03421 0,0.0034 -0.0231,0.01878 -0.0513,0.03421 -0.0282,0.01543 -0.0513,0.03198 -0.0513,0.03682 0,0.0048 -0.005,0.0088 -0.0118,0.0088 -0.0135,0 -0.0831,0.04688 -0.0889,0.05986 -0.002,0.0047 -0.008,0.0085 -0.0133,0.0085 -0.005,0 -0.11641,0.07067 -0.24705,0.15704 -0.13063,0.08637 -0.27856,0.183648 -0.32873,0.216165 -0.0502,0.03252 -0.0974,0.06446 -0.10499,0.071 -0.008,0.0065 -0.0185,0.01188 -0.0243,0.01188 -0.006,0 -0.0169,0.0077 -0.0247,0.01709 -0.008,0.0094 -0.0225,0.01685 -0.0327,0.01656 -0.0102,-2.64e-4 -0.0777,-0.04006 -0.15008,-0.08837 z"
         id="path9428" /><path
         style="fill:#ffffff;fill-opacity:1;stroke:none;stroke-width:0.00430943;stroke-opacity:1"
         d="m 117.72874,53.08174 c -0.002,-0.0071 -0.0118,-0.01601 -0.0228,-0.01977 -0.011,-0.0038 -0.0507,-0.02754 -0.0884,-0.05282 -0.0376,-0.02529 -0.0774,-0.04906 -0.0884,-0.05282 -0.011,-0.0038 -0.0199,-0.01103 -0.0199,-0.01614 0,-0.0051 -0.0115,-0.01291 -0.0257,-0.0173 -0.0141,-0.0044 -0.0282,-0.01159 -0.0314,-0.01598 -0.005,-0.0067 -0.0514,-0.03589 -0.18813,-0.117824 -0.0125,-0.0075 -0.0254,-0.01667 -0.0285,-0.02032 -0.003,-0.0037 -0.0416,-0.02831 -0.0855,-0.05479 -0.0439,-0.02648 -0.1183,-0.07351 -0.16533,-0.104508 -0.047,-0.031 -0.0958,-0.06151 -0.10832,-0.06779 -0.0125,-0.0063 -0.0613,-0.03679 -0.10832,-0.06779 -0.047,-0.031 -0.12143,-0.07805 -0.16533,-0.104545 -0.0439,-0.0265 -0.0815,-0.05244 -0.0836,-0.05765 -0.002,-0.0052 -0.009,-0.0095 -0.0147,-0.0095 -0.006,0 -0.0376,-0.01797 -0.0702,-0.03991 -0.0326,-0.02196 -0.0635,-0.03991 -0.0688,-0.03991 -0.005,0 -0.0167,-0.0064 -0.0254,-0.01426 -0.0359,-0.03221 -0.0481,-0.04034 -0.0717,-0.04783 -0.0136,-0.0043 -0.0248,-0.01204 -0.0248,-0.01717 0,-0.0051 -0.009,-0.01238 -0.02,-0.01614 -0.011,-0.0038 -0.0507,-0.02742 -0.0884,-0.05256 -0.0376,-0.02514 -0.0761,-0.04923 -0.0855,-0.05351 -0.009,-0.0043 -0.0197,-0.01106 -0.0228,-0.01503 -0.003,-0.004 -0.039,-0.02712 -0.0798,-0.05144 -0.0408,-0.02432 -0.0767,-0.04752 -0.0798,-0.05156 -0.005,-0.0062 -0.0541,-0.03687 -0.18814,-0.117205 -0.0125,-0.0075 -0.0254,-0.01667 -0.0285,-0.02032 -0.003,-0.0037 -0.0416,-0.0283 -0.0855,-0.05475 -0.12136,-0.07314 -0.12336,-0.07442 -0.14001,-0.08967 -0.009,-0.0078 -0.0205,-0.01426 -0.0266,-0.01426 -0.006,0 -0.0173,-0.0054 -0.0248,-0.01204 -0.0189,-0.01651 -0.27059,-0.1793 -0.29882,-0.193267 -0.0244,-0.01204 -0.0595,-0.0339 -0.0792,-0.0492 -0.007,-0.0051 -0.0465,-0.03082 -0.0885,-0.05706 l -0.0765,-0.04771 0.0879,-0.05833 c 0.2954,-0.196022 0.40462,-0.266517 0.41295,-0.266517 0.005,0 0.0111,-0.0039 0.0132,-0.0085 0.006,-0.01249 0.0751,-0.05986 0.0879,-0.05986 0.006,0 0.0126,-0.0038 0.0147,-0.0085 0.004,-0.01011 0.074,-0.05986 0.0836,-0.05986 0.004,0 0.0128,-0.0053 0.0204,-0.01188 0.008,-0.0065 0.0548,-0.03849 0.10499,-0.07102 0.0502,-0.03252 0.22115,-0.145192 0.37995,-0.250369 0.1588,-0.105178 0.29349,-0.191231 0.2993,-0.191231 0.006,0 0.0106,-0.0039 0.0106,-0.0088 0,-0.0048 0.0231,-0.02141 0.0513,-0.03682 0.0282,-0.01542 0.0513,-0.03081 0.0513,-0.03421 0,-0.0034 0.0231,-0.01879 0.0513,-0.03421 0.0282,-0.01543 0.0513,-0.03198 0.0513,-0.03682 0,-0.0048 0.005,-0.0088 0.0119,-0.0088 0.0135,0 0.0831,-0.04688 0.0888,-0.05986 0.002,-0.0047 0.009,-0.0085 0.0147,-0.0085 0.0128,0 0.0824,-0.04737 0.0879,-0.05986 0.002,-0.0047 0.0103,-0.0085 0.0182,-0.0085 0.0127,0 0.0283,-0.01069 0.083,-0.0568 0.008,-0.0064 0.0183,-0.01161 0.0239,-0.01161 0.009,0 0.0259,-0.01222 0.0787,-0.0568 0.008,-0.0064 0.0188,-0.01161 0.0248,-0.01161 0.006,0 0.0179,-0.0066 0.0261,-0.01469 0.008,-0.0081 0.0356,-0.02715 0.0607,-0.0424 0.0251,-0.01524 0.0507,-0.03192 0.057,-0.03706 0.0295,-0.02421 0.23686,-0.15671 0.24519,-0.15671 0.005,0 0.0112,-0.0038 0.0133,-0.0085 0.006,-0.01249 0.0751,-0.05986 0.0879,-0.05986 0.006,0 0.0126,-0.0038 0.0147,-0.0085 0.006,-0.01249 0.0751,-0.05986 0.0879,-0.05986 0.006,0 0.0126,-0.0038 0.0147,-0.0085 0.005,-0.01095 0.0744,-0.05986 0.0851,-0.05986 0.004,0 0.0175,-0.0085 0.029,-0.01895 0.0115,-0.01042 0.0235,-0.01638 0.0266,-0.01328 0.003,0.0031 0.004,0.849257 0.003,1.880315 -0.002,1.031057 -0.004,1.868834 -0.006,1.861724 z"
         id="path9430" /></g><path
       style="display:inline;fill:#1000b6;fill-opacity:1;stroke:none;stroke-width:0.1;stroke-opacity:1"
       id="rect9272-8"
       width="67.806091"
       height="13.295312"
       x="121.53631"
       y="106.93085"
       inkscape:path-effect="#path-effect10166-3"
       d="m 125.24047,106.93085 60.39776,0 a 3.7041667,3.7041667 45 0 1 3.70417,3.70416 v 5.88698 a 3.7041667,3.7041667 135 0 1 -3.70417,3.70417 h -60.39776 a 3.7041667,3.7041667 45 0 1 -3.70416,-3.70417 v -5.88698 a 3.7041667,3.7041667 135 0 1 3.70416,-3.70416 z"
       sodipodi:type="rect" /><text
       xml:space="preserve"
       style="font-size:5.67266px;display:inline;fill:#ffffff;fill-opacity:1;stroke:none;stroke-width:0.1005;stroke-opacity:1"
       x="140.14983"
       y="115.97167"
       id="text8530-4"><tspan
         sodipodi:role="line"
         id="tspan8528-7"
         style="font-size:5.67266px;fill:#ffffff;fill-opacity:1;stroke:none;stroke-width:0.1005;stroke-opacity:1"
         x="140.14983"
         y="115.97167">06 51 77 14 97</tspan></text><path
       style="fill:#ffffff;fill-opacity:1;stroke:none;stroke-width:0.0173239;stroke-opacity:1"
       d="m 129.77847,117.74414 c -0.0807,-0.0398 -0.18384,-0.12698 -0.22918,-0.19375 -0.0778,-0.11449 -0.0824,-0.34068 -0.0824,-3.97165 0,-3.63882 0.005,-3.85694 0.0829,-3.97233 0.17934,-0.26416 0.20874,-0.26751 2.34336,-0.26751 2.16042,0 2.19176,0.004 2.36244,0.28372 0.0908,0.14896 0.0925,0.22099 0.0925,3.95612 0,3.73514 -0.002,3.80717 -0.0925,3.95613 -0.17085,0.28023 -0.20106,0.28383 -2.36937,0.28268 -1.69252,-8e-4 -1.98106,-0.0109 -2.10771,-0.0734 z m 2.2804,-0.22466 c 0.26858,-0.13889 0.15737,-0.57178 -0.14689,-0.57178 -0.29362,0 -0.42279,0.36594 -0.19298,0.54671 0.14442,0.1136 0.16563,0.11517 0.33987,0.0251 z m 1.94575,-4.00949 v -3.27728 l -2.097,-0.0119 -2.097,-0.0119 v 3.30112 3.30113 l 2.097,-0.0119 2.097,-0.0119 z m -1.40667,-3.70127 c -0.0137,-0.0712 -0.0892,-0.0816 -0.67584,-0.093 -0.37066,-0.007 -0.67939,0.006 -0.7036,0.0304 -0.11204,0.11203 0.0403,0.14281 0.70664,0.14281 0.63073,0 0.68691,-0.007 0.6728,-0.0802 z"
       id="path10969" /><path
       style="fill:#ffffff;fill-opacity:1;stroke:none;stroke-width:0.0172377;stroke-opacity:1"
       d="m 272.79073,13.362006 c -0.28525,-0.173917 -0.28228,-0.143015 -0.28228,-2.955149 V 7.8580833 l 0.1035,-0.154971 c 0.21611,-0.323473 0.13169,-0.314449 2.94265,-0.314528 2.39011,-6.7e-5 2.5305,0.0045 2.69086,0.08681 0.34287,0.176021 0.32885,0.05062 0.32885,2.9439627 0,2.808707 0.007,2.733186 -0.25609,2.939796 -0.11959,0.09409 -0.15295,0.09524 -2.74878,0.09507 -2.55516,-1.82e-4 -2.63189,-0.0027 -2.77871,-0.09221 z m 1.54202,-2.165216 V 9.8057433 h -0.47887 -0.4789 v 1.3910467 1.391047 h 0.4789 0.47887 z m 1.5507,0.498181 v -0.892867 l 0.13329,-0.133316 c 0.21606,-0.216037 0.52684,-0.172153 0.66437,0.09381 0.0542,0.104767 0.0689,0.313835 0.0689,0.979222 v 0.846015 h 0.4789 0.47887 v -0.991976 c 0,-0.944712 -0.006,-1.002931 -0.1075,-1.221881 -0.29917,-0.6424847 -1.11302,-0.8303577 -1.61375,-0.37252 l -0.1026,0.09383 V 9.9505173 9.8057433 h -0.4789 -0.4789 v 1.3910467 1.391047 h 0.4789 0.4789 z m -1.58488,-2.5716477 c 0.26183,-0.292195 0.12038,-0.787579 -0.26078,-0.913377 -0.40907,-0.135007 -0.81745,0.228244 -0.73456,0.653394 0.0888,0.455478 0.68143,0.610273 0.99534,0.259983 z"
       id="path11893" /><path
       style="fill:#ffffff;fill-opacity:1;stroke:none;stroke-width:0.0172377;stroke-opacity:1"
       d="m 283.83963,13.732912 c -0.86763,-0.425041 -1.53723,-1.248056 -1.7851,-2.194061 -0.10429,-0.398124 -0.10429,-1.198161 0,-1.5962837 0.30644,-1.169636 1.24214,-2.118448 2.38954,-2.423 0.4614,-0.122479 1.18517,-0.132965 1.63277,-0.02366 1.18414,0.289163 2.15397,1.251795 2.46229,2.443976 0.10107,0.3907797 0.1016,1.2073977 0,1.6016467 -0.24368,0.955483 -0.92282,1.780569 -1.82354,2.215428 -0.54885,0.264979 -0.57139,0.242273 -0.57139,-0.575696 0,-0.511436 -0.0145,-0.648477 -0.0838,-0.784127 l -0.0838,-0.16438 0.20923,-0.02777 c 0.31022,-0.04117 0.73797,-0.26125 0.91879,-0.472718 0.21243,-0.248443 0.3198,-0.554359 0.34941,-0.995598 0.0271,-0.403324 -0.0201,-0.619832 -0.19346,-0.8901197 -0.0897,-0.139676 -0.1019,-0.204885 -0.0814,-0.433277 0.0132,-0.14787 0,-0.35608 -0.0283,-0.462689 -0.0497,-0.183846 -0.0611,-0.193827 -0.2217,-0.193694 -0.10237,8.7e-5 -0.29419,0.06306 -0.4853,0.159311 -0.30474,0.153503 -0.32586,0.15757 -0.5929,0.114224 -0.35708,-0.05796 -0.81018,-0.05777 -1.12528,4.77e-4 -0.23791,0.04398 -0.2641,0.03872 -0.56708,-0.11388 -0.19058,-0.09599 -0.38465,-0.160047 -0.48514,-0.160131 -0.15229,-1.28e-4 -0.17245,0.01495 -0.22235,0.166086 -0.0323,0.09793 -0.0451,0.28741 -0.0312,0.461191 0.0206,0.258424 0.0101,0.31488 -0.0854,0.455739 -0.16151,0.2379677 -0.214,0.4898937 -0.18773,0.9007957 0.0477,0.744981 0.35288,1.182443 0.96531,1.383491 0.1655,0.05432 0.35147,0.09877 0.41328,0.09877 h 0.11239 l -0.0904,0.148227 c -0.0497,0.08152 -0.0904,0.181749 -0.0905,0.222721 -1.8e-4,0.08516 -0.12843,0.129219 -0.3787,0.130119 -0.23661,8.47e-4 -0.40319,-0.09525 -0.55022,-0.31743 -0.14981,-0.226372 -0.36486,-0.365669 -0.56492,-0.365898 -0.19804,-2.28e-4 -0.18854,0.07576 0.0358,0.286881 0.10115,0.09517 0.23535,0.281702 0.29824,0.41452 0.15798,0.3337 0.35904,0.443963 0.81817,0.44872 l 0.34144,0.0035 v 0.303322 c 0,0.474815 -0.0726,0.502452 -0.61814,0.235221 z"
       id="path11895" /><path
       style="fill:#6e6e6e;fill-opacity:1;stroke:none;stroke-width:0.737093;stroke-opacity:1"
       d="m 18.507602,397.84574 c 0,-208.62523 0.228137,-293.97192 0.506972,-189.6593 0.278834,104.31262 0.278834,275.00599 0,379.31861 -0.278835,104.31262 -0.506972,18.96593 -0.506972,-189.65931 z"
       id="path21990"
       transform="scale(0.26458333)" /></g></svg>
